<?xml version="1.0" encoding="UTF-8"?>
<svg xmlns="http://www.w3.org/2000/svg" width="1500" height="400" viewBox="0 0 1500.15 400.00">
<title>BlueSky Sandbox</title>
<g id="mark"><defs xmlns="http://www.w3.org/2000/svg">
<linearGradient id="sky" x1="0" y1="0" x2="0" y2="1">
<stop offset="0" stop-color="#12306E" />
<stop offset="1" stop-color="#45B6FF" />
</linearGradient>
<clipPath id="disc"><circle cx="200" cy="200" r="200" /></clipPath>
</defs>
<circle xmlns="http://www.w3.org/2000/svg" cx="200" cy="200" r="200" fill="url(#sky)" />
<g xmlns="http://www.w3.org/2000/svg" clip-path="url(#disc)">
<path d="M 200 200 L 33.2 122.2 A 184 184 0 0 1 40.7 108.0 Z" fill="#FFFFFF" fill-opacity="0.150" />
<path d="M 200 200 L 27.1 137.1 A 184 184 0 0 1 33.2 122.2 Z" fill="#FFFFFF" fill-opacity="0.131" />
<path d="M 200 200 L 22.3 152.4 A 184 184 0 0 1 27.1 137.1 Z" fill="#FFFFFF" fill-opacity="0.112" />
<path d="M 200 200 L 18.8 168.0 A 184 184 0 0 1 22.3 152.4 Z" fill="#FFFFFF" fill-opacity="0.094" />
<path d="M 200 200 L 16.7 184.0 A 184 184 0 0 1 18.8 168.0 Z" fill="#FFFFFF" fill-opacity="0.075" />
<path d="M 200 200 L 16.0 200.0 A 184 184 0 0 1 16.7 184.0 Z" fill="#FFFFFF" fill-opacity="0.056" />
<path d="M 200 200 L 16.7 216.0 A 184 184 0 0 1 16.0 200.0 Z" fill="#FFFFFF" fill-opacity="0.037" />
<path d="M 200 200 L 18.8 232.0 A 184 184 0 0 1 16.7 216.0 Z" fill="#FFFFFF" fill-opacity="0.019" />
<line x1="200" y1="200" x2="40.7" y2="108.0" stroke="#FFFFFF" stroke-opacity="0.45" stroke-width="1.4" stroke-linecap="round" />
<g fill="none" stroke="#FFFFFF" stroke-opacity="0.18" stroke-width="1.1">
<circle cx="200" cy="200" r="50" />
<circle cx="200" cy="200" r="100" />
<circle cx="200" cy="200" r="150" />
</g>
<path d="M 390.0 200.0 L 398.5 200.0 M 391.1 233.7 L 395.5 234.5 M 382.3 266.4 L 386.5 267.9 M 364.5 295.0 L 371.9 299.2 M 348.6 324.7 L 352.1 327.6 M 324.7 348.6 L 327.6 352.1 M 295.0 364.5 L 299.2 371.9 M 266.4 382.3 L 267.9 386.5 M 233.7 391.1 L 234.5 395.5 M 200.0 390.0 L 200.0 398.5 M 166.3 391.1 L 165.5 395.5 M 133.6 382.3 L 132.1 386.5 M 105.0 364.5 L 100.8 371.9 M 75.3 348.6 L 72.4 352.1 M 51.4 324.7 L 47.9 327.6 M 35.5 295.0 L 28.1 299.2 M 17.7 266.4 L 13.5 267.9 M 8.9 233.7 L 4.5 234.5 M 10.0 200.0 L 1.5 200.0 M 8.9 166.3 L 4.5 165.5 M 17.7 133.6 L 13.5 132.1 M 35.5 105.0 L 28.1 100.7 M 51.4 75.3 L 47.9 72.4 M 75.3 51.4 L 72.4 47.9 M 105.0 35.5 L 100.7 28.1 M 133.6 17.7 L 132.1 13.5 M 166.3 8.9 L 165.5 4.5 M 200.0 10.0 L 200.0 1.5 M 233.7 8.9 L 234.5 4.5 M 266.4 17.7 L 267.9 13.5 M 295.0 35.5 L 299.2 28.1 M 324.7 51.4 L 327.6 47.9 M 348.6 75.3 L 352.1 72.4 M 364.5 105.0 L 371.9 100.7 M 382.3 133.6 L 386.5 132.1 M 391.1 166.3 L 395.5 165.5" fill="none" stroke="#FFFFFF" stroke-opacity="0.4" stroke-width="1.3" stroke-linecap="round" />
<path d="M 194 200 H 206 M 200 194 V 206" stroke="#FFFFFF" stroke-opacity="0.5" stroke-width="1.4" stroke-linecap="round" />
<circle cx="80.5" cy="99.7" r="2.6" fill="#FFFFFF" fill-opacity="0.75" /><circle cx="66.9" cy="108.2" r="2.2" fill="#FFFFFF" fill-opacity="0.6" /><circle cx="53.4" cy="116.6" r="1.9" fill="#FFFFFF" fill-opacity="0.45" /><circle cx="39.8" cy="125.1" r="1.6" fill="#FFFFFF" fill-opacity="0.32" /><circle cx="26.2" cy="133.6" r="1.3" fill="#FFFFFF" fill-opacity="0.2" />
<circle cx="274.6" cy="97.9" r="1.6" fill="#FFFFFF" fill-opacity="0.7" /><circle cx="266.9" cy="102.7" r="1.4" fill="#FFFFFF" fill-opacity="0.55" /><circle cx="259.3" cy="107.4" r="1.2" fill="#FFFFFF" fill-opacity="0.4" /><circle cx="251.7" cy="112.2" r="1.0" fill="#FFFFFF" fill-opacity="0.28" />
<g transform="translate(300 82) rotate(-32) scale(0.2)" opacity="0.7">
<g fill="#FFFFFF" stroke="#FFFFFF" stroke-width="4" stroke-linejoin="round"><path d="M 104 0 C 100 -4.5 89 -11 62 -11 L -56 -11 C -77 -10.5 -94 -6 -104 -2.5 L -104 2.5 C -94 6 -77 10.5 -56 11 L 62 11 C 89 11 100 4.5 104 0 Z" />
<path d="M 30 -48 C 30 -49.5 29 -50 27.5 -50 L 0 -50 L 0 -38 L 27.5 -38 C 29 -38 30 -38.5 30 -40 Z" />
<path d="M 30 48 C 30 49.5 29 50 27.5 50 L 0 50 L 0 38 L 27.5 38 C 29 38 30 38.5 30 40 Z" />
<rect x="6" y="-45.2" width="18" height="2.4" rx="1.2" fill="#9EC2FF" stroke="none" />
<rect x="6" y="42.8" width="18" height="2.4" rx="1.2" fill="#9EC2FF" stroke="none" />
<path d="M 34 -10 L -30 -98 C -33 -103 -40 -105 -45 -101 L -24 -38 L -26 -10 Z" />
<path d="M 34 10 L -30 98 C -33 103 -40 105 -45 101 L -24 38 L -26 10 Z" />
<path d="M -64 -9 L -90 -40 C -92 -43 -97 -44 -100 -41 L -95 -5 Z" />
<path d="M -64 9 L -90 40 C -92 43 -97 44 -100 41 L -95 5 Z" />
<path d="M 79 -6.2 C 84 -5.8 88.5 -3.6 89.8 0 C 88.5 3.6 84 5.8 79 6.2 C 82.4 4.4 85.4 2.6 86.6 0 C 85.4 -2.6 82.4 -4.4 79 -6.2 Z" fill="#12306E" stroke="none" />
</g></g>
<g transform="translate(128 70) rotate(-32) scale(0.4)" opacity="0.88">
<g fill="#FFFFFF" stroke="#FFFFFF" stroke-width="3" stroke-linejoin="round"><path d="M 104 0 C 100 -4.5 89 -11 62 -11 L -56 -11 C -77 -10.5 -94 -6 -104 -2.5 L -104 2.5 C -94 6 -77 10.5 -56 11 L 62 11 C 89 11 100 4.5 104 0 Z" />
<path d="M 30 -48 C 30 -49.5 29 -50 27.5 -50 L 0 -50 L 0 -38 L 27.5 -38 C 29 -38 30 -38.5 30 -40 Z" />
<path d="M 30 48 C 30 49.5 29 50 27.5 50 L 0 50 L 0 38 L 27.5 38 C 29 38 30 38.5 30 40 Z" />
<rect x="6" y="-45.2" width="18" height="2.4" rx="1.2" fill="#9EC2FF" stroke="none" />
<rect x="6" y="42.8" width="18" height="2.4" rx="1.2" fill="#9EC2FF" stroke="none" />
<path d="M 34 -10 L -30 -98 C -33 -103 -40 -105 -45 -101 L -24 -38 L -26 -10 Z" />
<path d="M 34 10 L -30 98 C -33 103 -40 105 -45 101 L -24 38 L -26 10 Z" />
<path d="M -64 -9 L -90 -40 C -92 -43 -97 -44 -100 -41 L -95 -5 Z" />
<path d="M -64 9 L -90 40 C -92 43 -97 44 -100 41 L -95 5 Z" />
<path d="M 79 -6.2 C 84 -5.8 88.5 -3.6 89.8 0 C 88.5 3.6 84 5.8 79 6.2 C 82.4 4.4 85.4 2.6 86.6 0 C 85.4 -2.6 82.4 -4.4 79 -6.2 Z" fill="#12306E" stroke="none" />
</g></g>
<g transform="translate(305 268) scale(0.62)" fill="#FFFFFF" opacity="0.85"><path d="M -34 24 L 38 24 A 18 18 0 1 0 32 -11 A 30 30 0 0 0 -27.6 -14.9 A 20 20 0 1 0 -34 24 Z" fill="#CFE2FF" />
<path d="M -34 24 L 38 24 A 18 18 0 1 0 32 -11 A 30 30 0 0 0 -27.6 -14.9 A 20 20 0 1 0 -34 24 Z" transform="translate(0 -5)" />
</g><g transform="translate(108 318) scale(0.92)" fill="#FFFFFF"><path d="M -48 24 L 52 24 A 14 14 0 0 0 53.9 -3.9 A 20 20 0 0 0 32.8 -26.0 A 28 28 0 0 0 -19.5 -29.5 A 22 22 0 0 0 -46.0 -7.9 A 16 16 0 1 0 -48.0 24.0 Z" fill="#CFE2FF" />
<path d="M -48 24 L 52 24 A 14 14 0 0 0 53.9 -3.9 A 20 20 0 0 0 32.8 -26.0 A 28 28 0 0 0 -19.5 -29.5 A 22 22 0 0 0 -46.0 -7.9 A 16 16 0 1 0 -48.0 24.0 Z" transform="translate(0 -5)" />
</g><g fill="none" stroke="#FFFFFF" stroke-linecap="round" stroke-linejoin="round">
<path d="M 341.0 145.0 L 346.1 141.8 A 28 28 0 0 1 387.2 175.4 L 367.4 228.2 M 359.0 250.7 L 334.6 315.9" stroke-width="2" stroke-dasharray="5 7" stroke-opacity="0.8" />
<rect x="-5" y="-5" width="10" height="10" transform="translate(363.2 239.5) rotate(45)" stroke-width="2" />
<circle cx="330" cy="328" r="7.5" stroke-width="2" />
<path d="M 167 45 L 180 37" stroke-width="1.6" stroke-dasharray="4 5" stroke-opacity="0.75" />
<rect x="-3.5" y="-3.5" width="7" height="7" transform="translate(189 31) rotate(45)" stroke-width="1.6" stroke-opacity="0.85" />
<path d="M 320.5 69.5 L 326 66" stroke-width="1.2" stroke-dasharray="3 3" stroke-opacity="0.7" />
<rect x="-2.5" y="-2.5" width="5" height="5" transform="translate(333 62) rotate(45)" stroke-width="1.2" stroke-opacity="0.75" />
</g>
<circle cx="330" cy="328" r="2.6" fill="#FFFFFF" />
<g transform="translate(245 205) rotate(-32) scale(1)">
<g fill="#FFFFFF" stroke="#FFFFFF" stroke-width="2" stroke-linejoin="round"><path d="M 104 0 C 100 -4.5 89 -11 62 -11 L -56 -11 C -77 -10.5 -94 -6 -104 -2.5 L -104 2.5 C -94 6 -77 10.5 -56 11 L 62 11 C 89 11 100 4.5 104 0 Z" />
<path d="M 36 -38 C 36 -39.5 35 -40 33.5 -40 L 10 -40 L 10 -28 L 33.5 -28 C 35 -28 36 -28.5 36 -30 Z" />
<path d="M 36 38 C 36 39.5 35 40 33.5 40 L 10 40 L 10 28 L 33.5 28 C 35 28 36 28.5 36 30 Z" />
<path d="M 16 -66 C 16 -67.5 15 -68 13.5 -68 L -12 -68 L -12 -56 L 13.5 -56 C 15 -56 16 -56.5 16 -58 Z" />
<path d="M 16 66 C 16 67.5 15 68 13.5 68 L -12 68 L -12 56 L 13.5 56 C 15 56 16 56.5 16 58 Z" />
<rect x="13" y="-35.2" width="17" height="2.4" rx="1.2" fill="#9EC2FF" stroke="none" />
<rect x="13" y="32.8" width="17" height="2.4" rx="1.2" fill="#9EC2FF" stroke="none" />
<rect x="-7" y="-63.2" width="17" height="2.4" rx="1.2" fill="#9EC2FF" stroke="none" />
<rect x="-7" y="60.8" width="17" height="2.4" rx="1.2" fill="#9EC2FF" stroke="none" />
<path d="M 34 -10 L -30 -98 C -33 -103 -40 -105 -45 -101 L -24 -38 L -26 -10 Z" />
<path d="M 34 10 L -30 98 C -33 103 -40 105 -45 101 L -24 38 L -26 10 Z" />
<path d="M -64 -9 L -90 -40 C -92 -43 -97 -44 -100 -41 L -95 -5 Z" />
<path d="M -64 9 L -90 40 C -92 43 -97 44 -100 41 L -95 5 Z" />
<path d="M 79 -6.2 C 84 -5.8 88.5 -3.6 89.8 0 C 88.5 3.6 84 5.8 79 6.2 C 82.4 4.4 85.4 2.6 86.6 0 C 85.4 -2.6 82.4 -4.4 79 -6.2 Z" fill="#12306E" stroke="none" />
</g></g>
</g>
</g>
<g id="wordmark"><path fill="#2D6CF6" d="M481.3945945945946 243.51351351351352V229.0918918918919H492.8324324324324V170.9081081081081H481.3945945945946V156.4864864864865H526.1513513513513Q538.0864864864865 156.4864864864865 545.2972972972973 162.3918918918919Q552.5081081081081 168.2972972972973 552.5081081081081 178.4918918918919V179.73513513513512Q552.5081081081081 185.7027027027027 550.2702702702702 189.49459459459462Q548.0324324324324 193.2864864864865 544.9864864864865 195.33783783783787Q541.9405405405405 197.3891891891892 539.2054054054054 198.25945945945946V200.4972972972973Q541.9405405405405 201.24324324324326 545.172972972973 203.2945945945946Q548.4054054054054 205.34594594594594 550.7054054054054 209.2Q553.0054054054054 213.05405405405406 553.0054054054054 219.27027027027026V220.51351351351352Q553.0054054054054 231.45405405405407 545.6702702702703 237.4837837837838Q538.3351351351351 243.51351351351352 526.6486486486486 243.51351351351352ZM509.2432432432432 192.2918918918919H524.4108108108109Q529.5081081081081 192.2918918918919 532.8027027027026 189.6810810810811Q536.0972972972972 187.07027027027027 536.0972972972972 182.47027027027028V181.22702702702702Q536.0972972972972 176.50270270270272 532.8648648648648 173.95405405405407Q529.6324324324324 171.40540540540542 524.4108108108109 171.40540540540542H509.2432432432432ZM509.2432432432432 228.5945945945946H524.6594594594594Q530.0054054054054 228.5945945945946 533.3 225.9837837837838Q536.5945945945946 223.37297297297297 536.5945945945946 218.52432432432434V217.28108108108108Q536.5945945945946 212.43243243243245 533.3621621621621 209.82162162162163Q530.1297297297298 207.2108108108108 524.6594594594594 207.2108108108108H509.2432432432432ZM564.4432432432433 243.51351351351352V156.4864864864865H580.1081081081081V243.51351351351352ZM618.5243243243244 244.5081081081081Q611.3135135135136 244.5081081081081 605.9054054054054 241.21351351351353Q600.4972972972973 237.91891891891893 597.5135135135135 232.07567567567568Q594.5297297297298 226.23243243243243 594.5297297297298 218.64864864864865V181.84864864864866H610.1945945945946V217.40540540540542Q610.1945945945946 224.36756756756756 613.6135135135136 227.84864864864863Q617.0324324324325 231.32972972972973 623.372972972973 231.32972972972973Q630.5837837837838 231.32972972972973 634.5621621621622 226.54324324324324Q638.5405405405406 221.75675675675677 638.5405405405406 213.1783783783784V181.84864864864866H654.2054054054055V243.51351351351352H638.7891891891893V235.43243243243245H636.5513513513514Q635.0594594594595 238.54054054054055 630.9567567567568 241.5243243243243Q626.8540540540541 244.5081081081081 618.5243243243244 244.5081081081081ZM697.2216216216216 245.25405405405405Q688.0216216216216 245.25405405405405 680.9972972972973 241.33783783783784Q673.972972972973 237.42162162162163 670.0567567567568 230.27297297297298Q666.1405405405405 223.12432432432433 666.1405405405405 213.42702702702704V211.93513513513514Q666.1405405405405 202.23783783783784 669.9945945945947 195.0891891891892Q673.8486486486487 187.94054054054055 680.8108108108108 184.02432432432434Q687.772972972973 180.10810810810813 696.972972972973 180.10810810810813Q706.0486486486486 180.10810810810813 712.7621621621622 184.14864864864865Q719.4756756756757 188.1891891891892 723.2054054054054 195.33783783783784Q726.9351351351352 202.48648648648648 726.9351351351352 211.93513513513514V217.28108108108108H682.0540540540541Q682.3027027027027 223.6216216216216 686.7783783783784 227.6Q691.2540540540541 231.57837837837837 697.7189189189189 231.57837837837837Q704.3081081081081 231.57837837837837 707.4162162162162 228.71891891891892Q710.5243243243243 225.85945945945946 712.1405405405405 222.3783783783784L724.9459459459459 229.0918918918919Q723.2054054054054 232.32432432432432 719.9108108108107 236.11621621621623Q716.6162162162162 239.9081081081081 711.1459459459459 242.5810810810811Q705.6756756756756 245.25405405405405 697.2216216216216 245.25405405405405ZM682.1783783783784 205.59459459459458H711.0216216216216Q710.5243243243243 200.24864864864867 706.7324324324325 197.01621621621624Q702.9405405405405 193.7837837837838 696.8486486486487 193.7837837837838Q690.5081081081081 193.7837837837838 686.7783783783784 197.01621621621624Q683.0486486486486 200.24864864864867 682.1783783783784 205.59459459459458ZM768.0864864864865 245.25405405405405Q758.0162162162162 245.25405405405405 750.3081081081082 241.64864864864865Q742.6 238.04324324324324 738.2486486486487 231.32972972972973Q733.8972972972973 224.61621621621623 733.8972972972973 215.16756756756757V211.6864864864865H750.0594594594595V215.16756756756757Q750.0594594594595 223.0 754.9081081081081 226.9162162162162Q759.7567567567568 230.83243243243243 768.0864864864865 230.83243243243243Q776.5405405405405 230.83243243243243 780.7054054054054 227.4756756756757Q784.8702702702703 224.11891891891892 784.8702702702703 218.8972972972973Q784.8702702702703 213.42702702702704 780.3324324324325 211.00270270270272Q775.7945945945946 208.57837837837837 767.3405405405406 206.71351351351353L764.4810810810811 206.0918918918919Q755.5297297297298 204.10270270270271 749.127027027027 201.05675675675678Q742.7243243243244 198.01081081081082 739.3054054054055 193.03783783783786Q735.8864864864865 188.0648648648649 735.8864864864865 180.10810810810813Q735.8864864864865 168.17297297297299 744.2783783783784 161.45945945945948Q752.6702702702703 154.74594594594595 766.5945945945946 154.74594594594595Q775.918918918919 154.74594594594595 783.1918918918919 157.9162162162162Q790.4648648648649 161.08648648648648 794.6297297297298 167.36486486486487Q798.7945945945946 173.64324324324326 798.7945945945946 183.0918918918919V186.82162162162163H782.6324324324324V183.0918918918919Q782.6324324324324 175.63243243243244 778.3432432432433 172.4Q774.0540540540541 169.16756756756757 766.5945945945946 169.16756756756757Q759.1351351351352 169.16756756756757 755.5918918918919 171.96486486486486Q752.0486486486486 174.76216216216216 752.0486486486486 179.61081081081082Q752.0486486486486 184.45945945945948 755.7783783783784 187.07027027027027Q759.5081081081081 189.6810810810811 767.3405405405406 191.42162162162163L770.2 192.04324324324324Q779.5243243243243 194.03243243243244 786.4243243243243 197.14054054054054Q793.3243243243244 200.24864864864867 797.1783783783784 205.34594594594597Q801.0324324324324 210.44324324324324 801.0324324324324 218.4Q801.0324324324324 226.35675675675677 796.9918918918919 232.3864864864865Q792.9513513513514 238.4162162162162 785.5540540540541 241.83513513513515Q778.1567567567567 245.25405405405405 768.0864864864865 245.25405405405405ZM811.227027027027 243.51351351351352V156.4864864864865H826.8918918918919V204.6H829.1297297297297L849.5189189189189 181.84864864864866H869.9081081081081L841.4378378378378 211.6864864864865L870.9027027027026 243.51351351351352H850.7621621621621L829.1297297297297 219.02162162162162H826.8918918918919V243.51351351351352ZM885.5729729729729 268.3783783783784V254.7027027027027H919.1405405405405Q922.6216216216217 254.7027027027027 922.6216216216217 250.97297297297297V235.43243243243245H920.3837837837838Q918.8918918918919 238.54054054054055 914.7891891891892 241.5243243243243Q910.6864864864865 244.5081081081081 902.3567567567568 244.5081081081081Q895.145945945946 244.5081081081081 889.7378378378378 241.21351351351353Q884.3297297297297 237.91891891891893 881.3459459459459 232.07567567567568Q878.3621621621621 226.23243243243243 878.3621621621621 218.64864864864865V181.84864864864866H894.027027027027V217.40540540540542Q894.027027027027 224.36756756756756 897.4459459459459 227.84864864864863Q900.8648648648649 231.32972972972973 907.2054054054054 231.32972972972973Q914.4162162162162 231.32972972972973 918.3945945945945 226.54324324324324Q922.372972972973 221.75675675675677 922.372972972973 213.1783783783784V181.84864864864866H938.0378378378379V254.45405405405407Q938.0378378378379 260.79459459459457 934.3081081081082 264.5864864864865Q930.5783783783784 268.3783783783784 924.3621621621621 268.3783783783784Z"/>
<path fill="#0E1B33" d="M1014.6216216216216 245.25405405405405Q1004.8 245.25405405405405 997.2162162162161 241.77297297297298Q989.6324324324323 238.2918918918919 985.3432432432431 231.5162162162162Q981.054054054054 224.74054054054054 981.054054054054 215.04324324324324V211.93513513513514H994.3567567567567V215.04324324324324Q994.3567567567567 224.36756756756756 999.8891891891892 228.90540540540542Q1005.4216216216216 233.44324324324324 1014.6216216216216 233.44324324324324Q1023.8216216216216 233.44324324324324 1028.6081081081081 229.52702702702703Q1033.3945945945945 225.61081081081082 1033.3945945945945 219.3945945945946Q1033.3945945945945 213.1783783783784 1028.4837837837838 210.3810810810811Q1023.5729729729729 207.5837837837838 1014.9945945945946 205.59459459459458L1010.3945945945945 204.4756756756757Q1001.9405405405405 202.61081081081082 995.8486486486486 199.62702702702705Q989.7567567567567 196.64324324324326 986.3999999999999 191.7945945945946Q983.0432432432432 186.94594594594594 983.0432432432432 179.36216216216218Q983.0432432432432 167.8 991.3108108108108 161.27297297297298Q999.5783783783784 154.74594594594595 1013.1297297297297 154.74594594594595Q1022.2054054054054 154.74594594594595 1029.354054054054 157.85405405405407Q1036.5027027027027 160.96216216216217 1040.6054054054052 167.05405405405406Q1044.708108108108 173.14594594594595 1044.708108108108 182.34594594594594V186.82162162162163H1031.4054054054054V182.34594594594594Q1031.4054054054054 173.8918918918919 1026.3702702702703 170.22432432432436Q1021.335135135135 166.55675675675678 1013.1297297297297 166.55675675675678Q1005.0486486486486 166.55675675675678 1000.6972972972973 169.85135135135135Q996.3459459459459 173.14594594594595 996.3459459459459 178.98918918918918Q996.3459459459459 184.95675675675676 1000.6351351351351 187.81621621621622Q1004.9243243243243 190.67567567567568 1013.254054054054 192.54054054054055L1017.854054054054 193.65945945945947Q1026.1837837837838 195.52432432432434 1032.710810810811 198.44594594594594Q1039.2378378378378 201.36756756756756 1042.9675675675676 206.34054054054053Q1046.6972972972972 211.31351351351353 1046.6972972972972 219.14594594594595Q1046.6972972972972 226.97837837837838 1042.781081081081 232.8216216216216Q1038.8648648648648 238.66486486486485 1031.654054054054 241.95945945945945Q1024.4432432432432 245.25405405405405 1014.6216216216216 245.25405405405405ZM1077.7783783783784 245.25405405405405Q1071.1891891891892 245.25405405405405 1066.0297297297298 243.0162162162162Q1060.8702702702703 240.7783783783784 1057.8243243243244 236.42702702702704Q1054.7783783783784 232.07567567567568 1054.7783783783784 225.85945945945946Q1054.7783783783784 216.53513513513514 1061.4297297297298 211.74864864864867Q1068.081081081081 206.96216216216217 1078.1513513513514 206.96216216216217H1096.8V202.9837837837838Q1096.8 197.76216216216216 1093.5675675675675 194.46756756756758Q1090.3351351351353 191.17297297297299 1083.6216216216217 191.17297297297299Q1077.0324324324324 191.17297297297299 1073.5513513513515 194.28108108108108Q1070.0702702702704 197.3891891891892 1068.9513513513514 202.36216216216218L1057.0162162162162 198.5081081081081Q1058.5081081081082 193.65945945945947 1061.8027027027028 189.55675675675678Q1065.0972972972975 185.45405405405407 1070.5054054054056 182.96756756756758Q1075.9135135135136 180.48108108108107 1083.745945945946 180.48108108108107Q1095.6810810810812 180.48108108108107 1102.518918918919 186.57297297297296Q1109.3567567567568 192.66486486486485 1109.3567567567568 203.85405405405407V229.0918918918919Q1109.3567567567568 232.82162162162163 1112.837837837838 232.82162162162163H1118.0594594594595V243.51351351351352H1108.4864864864865Q1104.2594594594595 243.51351351351352 1101.5243243243244 241.27567567567567Q1098.7891891891893 239.03783783783783 1098.7891891891893 235.18378378378378V234.8108108108108H1096.8Q1095.8054054054055 236.8 1093.8162162162162 239.22432432432433Q1091.827027027027 241.64864864864865 1087.972972972973 243.45135135135135Q1084.118918918919 245.25405405405405 1077.7783783783784 245.25405405405405ZM1079.6432432432432 234.6864864864865Q1087.2270270270271 234.6864864864865 1092.0135135135135 230.27297297297298Q1096.8 225.85945945945946 1096.8 218.15135135135137V216.9081081081081H1078.8972972972974Q1073.8 216.9081081081081 1070.6918918918918 219.0837837837838Q1067.583783783784 221.25945945945946 1067.583783783784 225.48648648648648Q1067.583783783784 229.7135135135135 1070.8162162162162 232.2Q1074.0486486486486 234.6864864864865 1079.6432432432432 234.6864864864865ZM1128.0054054054056 243.51351351351352V182.22162162162164H1140.5621621621622V191.42162162162163H1142.5513513513515Q1144.291891891892 187.69189189189188 1148.7675675675678 184.45945945945945Q1153.2432432432433 181.22702702702702 1162.0702702702704 181.22702702702702Q1169.0324324324324 181.22702702702702 1174.4405405405405 184.33513513513515Q1179.8486486486488 187.44324324324324 1182.956756756757 193.16216216216216Q1186.0648648648648 198.88108108108108 1186.0648648648648 206.71351351351353V243.51351351351352H1173.2594594594595V207.70810810810812Q1173.2594594594595 199.75135135135136 1169.281081081081 195.95945945945948Q1165.3027027027028 192.16756756756757 1158.3405405405406 192.16756756756757Q1150.3837837837839 192.16756756756757 1145.5972972972972 197.3891891891892Q1140.8108108108108 202.61081081081082 1140.8108108108108 212.55675675675676V243.51351351351352ZM1227.3405405405406 245.25405405405405Q1219.6324324324326 245.25405405405405 1213.2297297297298 241.5243243243243Q1206.827027027027 237.7945945945946 1202.9108108108107 230.77027027027026Q1198.9945945945947 223.74594594594595 1198.9945945945947 213.8V211.93513513513514Q1198.9945945945947 202.1135135135135 1202.8486486486486 195.0891891891892Q1206.7027027027027 188.0648648648649 1213.1675675675676 184.27297297297298Q1219.6324324324326 180.48108108108107 1227.3405405405406 180.48108108108107Q1236.291891891892 180.48108108108107 1241.0783783783784 183.65135135135137Q1245.8648648648648 186.82162162162163 1247.9783783783785 190.55135135135134H1249.9675675675676V156.4864864864865H1262.772972972973V243.51351351351352H1250.2162162162163V234.8108108108108H1248.2270270270271Q1245.8648648648648 238.7891891891892 1241.0783783783784 242.02162162162162Q1236.291891891892 245.25405405405405 1227.3405405405406 245.25405405405405ZM1230.945945945946 234.06486486486486Q1239.2756756756758 234.06486486486486 1244.6837837837838 228.71891891891892Q1250.091891891892 223.37297297297297 1250.091891891892 213.42702702702704V212.30810810810812Q1250.091891891892 202.48648648648648 1244.6837837837838 197.14054054054054Q1239.2756756756758 191.7945945945946 1230.945945945946 191.7945945945946Q1222.6162162162163 191.7945945945946 1217.2702702702704 197.14054054054054Q1211.9243243243243 202.48648648648648 1211.9243243243243 212.30810810810812V213.42702702702704Q1211.9243243243243 223.37297297297297 1217.3324324324324 228.71891891891892Q1222.7405405405405 234.06486486486486 1230.945945945946 234.06486486486486ZM1314.6162162162161 245.25405405405405Q1305.6648648648647 245.25405405405405 1300.8783783783783 242.02162162162162Q1296.091891891892 238.7891891891892 1293.7297297297298 234.8108108108108H1291.7405405405405V243.51351351351352H1279.1837837837838V156.4864864864865H1291.9891891891891V190.55135135135134H1293.9783783783785Q1296.091891891892 186.82162162162163 1300.8783783783783 183.65135135135137Q1305.6648648648647 180.48108108108107 1314.6162162162161 180.48108108108107Q1322.3243243243244 180.48108108108107 1328.727027027027 184.27297297297298Q1335.1297297297297 188.0648648648649 1339.045945945946 195.0891891891892Q1342.9621621621623 202.1135135135135 1342.9621621621623 211.93513513513514V213.8Q1342.9621621621623 223.74594594594595 1339.045945945946 230.77027027027026Q1335.1297297297297 237.7945945945946 1328.6648648648647 241.5243243243243Q1322.2 245.25405405405405 1314.6162162162161 245.25405405405405ZM1310.8864864864865 234.06486486486486Q1319.2162162162163 234.06486486486486 1324.6243243243243 228.71891891891892Q1330.0324324324324 223.37297297297297 1330.0324324324324 213.42702702702704V212.30810810810812Q1330.0324324324324 202.48648648648648 1324.6243243243243 197.14054054054054Q1319.2162162162163 191.7945945945946 1310.8864864864865 191.7945945945946Q1302.5567567567568 191.7945945945946 1297.210810810811 197.14054054054054Q1291.8648648648648 202.48648648648648 1291.8648648648648 212.30810810810812V213.42702702702704Q1291.8648648648648 223.37297297297297 1297.272972972973 228.71891891891892Q1302.6810810810812 234.06486486486486 1310.8864864864865 234.06486486486486ZM1385.1081081081081 245.25405405405405Q1375.908108108108 245.25405405405405 1368.7594594594593 241.46216216216214Q1361.6108108108108 237.67027027027027 1357.508108108108 230.5837837837838Q1353.4054054054054 223.4972972972973 1353.4054054054054 213.8V211.93513513513514Q1353.4054054054054 202.23783783783784 1357.508108108108 195.21351351351353Q1361.6108108108108 188.1891891891892 1368.7594594594593 184.33513513513515Q1375.908108108108 180.48108108108107 1385.1081081081081 180.48108108108107Q1394.3081081081082 180.48108108108107 1401.5189189189189 184.33513513513515Q1408.7297297297296 188.1891891891892 1412.8324324324324 195.21351351351353Q1416.9351351351352 202.23783783783784 1416.9351351351352 211.93513513513514V213.8Q1416.9351351351352 223.4972972972973 1412.8324324324324 230.5837837837838Q1408.7297297297296 237.67027027027027 1401.5189189189189 241.46216216216214Q1394.3081081081082 245.25405405405405 1385.1081081081081 245.25405405405405ZM1385.1081081081081 233.81621621621622Q1393.5621621621622 233.81621621621622 1398.845945945946 228.4081081081081Q1404.1297297297297 223.0 1404.1297297297297 213.42702702702704V212.30810810810812Q1404.1297297297297 202.73513513513512 1398.845945945946 197.32702702702704Q1393.5621621621622 191.91891891891893 1385.1081081081081 191.91891891891893Q1376.654054054054 191.91891891891893 1371.4324324324325 197.32702702702704Q1366.2108108108107 202.73513513513512 1366.2108108108107 212.30810810810812V213.42702702702704Q1366.2108108108107 223.0 1371.4945945945947 228.4081081081081Q1376.7783783783784 233.81621621621622 1385.1081081081081 233.81621621621622ZM1425.1405405405405 243.51351351351352 1448.5135135135133 212.55675675675676 1425.6378378378377 182.22162162162164H1440.681081081081L1456.718918918919 204.22702702702702H1458.708108108108L1474.7459459459458 182.22162162162164H1489.9135135135134L1466.9135135135134 212.55675675675676L1490.2864864864864 243.51351351351352H1475.1189189189188L1458.708108108108 221.01081081081082H1456.718918918919L1440.4324324324323 243.51351351351352Z"/></g>
</svg>
